<?xml version="1.0" encoding="UTF-8"?>
<svg xmlns="http://www.w3.org/2000/svg" xmlns:xlink="http://www.w3.org/1999/xlink" width="20px" height="20px" viewBox="0 0 20 20" version="1.1">
<g id="surface1">
<path style=" stroke:none;fill-rule:nonzero;fill:rgb(100%,100%,100%);fill-opacity:1;" d="M 10 1.25 C 5.167969 1.25 1.25 5.167969 1.25 10 C 1.25 14.832031 5.167969 18.75 10 18.75 C 14.832031 18.75 18.75 14.832031 18.75 10 C 18.75 5.167969 14.832031 1.25 10 1.25 Z M 16.910156 12.917969 C 15.304688 16.71875 10.921875 18.5 7.121094 16.894531 C 3.316406 15.289062 1.539062 10.90625 3.144531 7.105469 C 4.75 3.300781 9.132812 1.523438 12.933594 3.128906 C 16.214844 4.511719 18.0625 8.023438 17.347656 11.511719 C 17.25 11.996094 17.101562 12.464844 16.910156 12.917969 Z M 16.910156 12.917969 "/>
<path style=" stroke:none;fill-rule:nonzero;fill:rgb(100%,100%,100%);fill-opacity:1;" d="M 10.613281 9.738281 L 10.613281 5.003906 C 10.613281 4.65625 10.332031 4.378906 9.988281 4.378906 C 9.640625 4.378906 9.363281 4.65625 9.363281 5.003906 L 9.363281 10.257812 L 13.296875 14.191406 C 13.542969 14.433594 13.9375 14.433594 14.179688 14.191406 C 14.425781 13.949219 14.425781 13.550781 14.179688 13.308594 Z M 10.613281 9.738281 "/>
</g>
</svg>
