<?xml version="1.0" encoding="UTF-8"?>
<svg xmlns="http://www.w3.org/2000/svg" xmlns:xlink="http://www.w3.org/1999/xlink" width="20px" height="20px" viewBox="0 0 20 20" version="1.1">
<g id="surface1">
<path style=" stroke:none;fill-rule:nonzero;fill:rgb(100%,100%,100%);fill-opacity:1;" d="M 13.671875 3.75 C 15.484375 3.75 16.921875 5.171875 16.921875 7 C 16.921875 9.53125 14.3125 11.90625 10.34375 15.5 L 10 15.8125 L 9.65625 15.5 C 5.6875 11.90625 3.078125 9.53125 3.078125 7 C 3.078125 5.1875 4.5 3.75 6.328125 3.75 C 7.359375 3.75 8.375 4.21875 9.0625 5.015625 L 10.015625 6.125 L 10.96875 5.015625 C 11.625 4.234375 12.65625 3.75 13.671875 3.75 M 13.671875 2.5 C 12.25 2.5 10.890625 3.15625 10 4.203125 C 9.109375 3.171875 7.75 2.5 6.328125 2.5 C 3.8125 2.5 1.828125 4.46875 1.828125 7 C 1.828125 10.078125 4.609375 12.609375 8.8125 16.421875 L 10 17.5 L 11.1875 16.421875 C 15.390625 12.59375 18.171875 10.078125 18.171875 7 C 18.171875 4.484375 16.203125 2.5 13.671875 2.5 Z M 13.671875 2.5 "/>
</g>
</svg>
