<?xml version="1.0" encoding="UTF-8"?>
<svg xmlns="http://www.w3.org/2000/svg" xmlns:xlink="http://www.w3.org/1999/xlink" width="20px" height="20px" viewBox="0 0 20 20" version="1.1">
<g id="surface1">
<path style=" stroke:none;fill-rule:nonzero;fill:rgb(100%,100%,100%);fill-opacity:1;" d="M 6.542969 17.902344 C 5.839844 18.339844 4.925781 18.113281 4.5 17.402344 C 4.296875 17.066406 4.234375 16.664062 4.324219 16.28125 L 5.230469 12.410156 C 5.253906 12.320312 5.222656 12.222656 5.152344 12.160156 L 2.179688 9.570312 C 1.5625 9.03125 1.492188 8.09375 2.019531 7.464844 C 2.273438 7.164062 2.636719 6.976562 3.03125 6.941406 L 6.929688 6.625 C 7.015625 6.617188 7.089844 6.5625 7.125 6.476562 L 8.628906 2.800781 C 8.941406 2.035156 9.8125 1.671875 10.574219 1.992188 C 10.933594 2.144531 11.222656 2.4375 11.371094 2.800781 L 12.875 6.476562 C 12.90625 6.5625 12.984375 6.617188 13.070312 6.625 L 16.96875 6.941406 C 17.789062 7.007812 18.394531 7.734375 18.328125 8.554688 C 18.296875 8.945312 18.113281 9.3125 17.820312 9.570312 L 14.847656 12.160156 C 14.777344 12.21875 14.746094 12.316406 14.769531 12.410156 L 15.675781 16.28125 C 15.863281 17.082031 15.375 17.890625 14.578125 18.082031 C 14.195312 18.175781 13.792969 18.113281 13.457031 17.902344 L 10.117188 15.828125 C 10.046875 15.78125 9.953125 15.78125 9.882812 15.828125 Z M 10.777344 14.765625 L 14.117188 16.839844 C 14.167969 16.871094 14.226562 16.882812 14.285156 16.867188 C 14.410156 16.839844 14.492188 16.703125 14.460938 16.566406 L 13.550781 12.695312 C 13.425781 12.152344 13.605469 11.582031 14.027344 11.214844 L 16.996094 8.628906 C 17.046875 8.585938 17.078125 8.523438 17.082031 8.457031 C 17.09375 8.316406 16.996094 8.199219 16.867188 8.1875 L 12.96875 7.871094 C 12.410156 7.824219 11.925781 7.46875 11.714844 6.949219 L 10.214844 3.273438 C 10.191406 3.214844 10.144531 3.167969 10.085938 3.144531 C 9.96875 3.09375 9.835938 3.148438 9.785156 3.273438 L 8.285156 6.949219 C 8.074219 7.46875 7.589844 7.824219 7.03125 7.871094 L 3.132812 8.1875 C 3.070312 8.195312 3.015625 8.222656 2.976562 8.269531 C 2.886719 8.378906 2.898438 8.535156 3.003906 8.628906 L 5.972656 11.214844 C 6.394531 11.582031 6.574219 12.152344 6.449219 12.695312 L 5.539062 16.566406 C 5.523438 16.632812 5.535156 16.703125 5.570312 16.761719 C 5.636719 16.875 5.777344 16.90625 5.882812 16.839844 L 9.222656 14.765625 C 9.699219 14.46875 10.300781 14.46875 10.777344 14.765625 Z M 10.777344 14.765625 "/>
</g>
</svg>
