<?xml version="1.0" encoding="UTF-8"?>
<svg xmlns="http://www.w3.org/2000/svg" xmlns:xlink="http://www.w3.org/1999/xlink" width="20px" height="20px" viewBox="0 0 20 20" version="1.1">
<g id="surface1">
<path style=" stroke:none;fill-rule:nonzero;fill:rgb(100%,100%,100%);fill-opacity:1;" d="M 17.5 8.332031 L 15.832031 8.332031 L 15.832031 6.667969 C 15.832031 3.445312 13.222656 0.832031 10 0.832031 C 6.777344 0.832031 4.167969 3.445312 4.167969 6.667969 L 4.167969 8.332031 L 2.5 8.332031 C 1.578125 8.335938 0.835938 9.078125 0.832031 10 L 0.832031 13.332031 C 0.835938 14.253906 1.578125 15 2.5 15 L 4.582031 15 C 4.8125 15 5 14.8125 5 14.582031 L 5 6.667969 C 5 3.910156 7.242188 1.667969 10 1.667969 C 12.757812 1.667969 15 3.910156 15 6.667969 L 15 14.167969 C 15 16.003906 13.503906 17.5 11.667969 17.5 L 11.59375 17.5 C 11.417969 17 10.945312 16.667969 10.417969 16.667969 L 9.582031 16.667969 C 8.894531 16.667969 8.332031 17.226562 8.332031 17.917969 C 8.332031 18.605469 8.894531 19.167969 9.582031 19.167969 L 10.417969 19.167969 C 10.945312 19.167969 11.417969 18.832031 11.59375 18.332031 L 11.667969 18.332031 C 13.648438 18.332031 15.351562 16.941406 15.75 15 L 17.5 15 C 18.421875 15 19.164062 14.253906 19.167969 13.332031 L 19.167969 10 C 19.164062 9.078125 18.421875 8.335938 17.5 8.332031 Z M 17.5 8.332031 "/>
</g>
</svg>
