<?xml version="1.0" encoding="UTF-8"?>
<svg xmlns="http://www.w3.org/2000/svg" xmlns:xlink="http://www.w3.org/1999/xlink" width="40px" height="40px" viewBox="0 0 40 40" version="1.1">
<g id="surface1">
<path style=" stroke:none;fill-rule:nonzero;fill:rgb(59.215686%,59.215686%,59.215686%);fill-opacity:1;" d="M 12.894531 26.535156 C 12.082031 27.003906 11.503906 27.738281 11.296875 28.5625 C 10.882812 30.203125 12.109375 31.746094 14.046875 32.011719 C 14.839844 32.121094 15.535156 32.136719 16.132812 32.0625 C 17.398438 31.902344 18.429688 31.320312 19.25 30.285156 C 19.804688 29.570312 20.101562 28.730469 20.101562 27.863281 L 20.109375 24.691406 C 16.515625 25.207031 14.09375 25.832031 12.894531 26.535156 Z M 20.140625 7.683594 C 20.140625 7.183594 20.71875 6.949219 21.007812 7.332031 L 28.058594 15.835938 C 29.507812 17.445312 29.957031 19.675781 29.136719 21.53125 C 28.5 22.929688 27.242188 23.773438 25.429688 24.046875 C 25.117188 24.09375 24.808594 23.898438 24.746094 23.605469 C 24.679688 23.316406 24.878906 23.042969 25.1875 22.996094 C 26.640625 22.773438 27.59375 22.128906 28.09375 21.050781 C 28.757812 19.570312 28.421875 17.792969 27.273438 16.511719 L 21.132812 9.160156 L 21.300781 27.875 C 21.308594 28.949219 20.953125 29.996094 20.269531 30.882812 C 19.269531 32.152344 17.933594 32.902344 16.300781 33.105469 C 15.5625 33.195312 14.730469 33.175781 13.808594 33.050781 C 11.175781 32.6875 9.535156 30.605469 10.117188 28.398438 C 10.402344 27.289062 11.191406 26.300781 12.28125 25.667969 C 13.6875 24.839844 16.289062 24.167969 20.109375 23.621094 Z M 20.140625 7.683594 "/>
</g>
</svg>
