<?xml version="1.0" encoding="UTF-8"?>
<svg xmlns="http://www.w3.org/2000/svg" xmlns:xlink="http://www.w3.org/1999/xlink" width="20px" height="20px" viewBox="0 0 20 20" version="1.1">
<g id="surface1">
<path style=" stroke:none;fill-rule:nonzero;fill:rgb(100%,100%,100%);fill-opacity:1;" d="M 6.398438 3.601562 C 7.285156 3.601562 8 4.316406 8 5.199219 L 8 14.800781 C 8 15.683594 7.285156 16.398438 6.398438 16.398438 C 5.515625 16.398438 4.800781 15.683594 4.800781 14.800781 L 4.800781 5.199219 C 4.800781 4.316406 5.515625 3.601562 6.398438 3.601562 Z M 13.601562 3.601562 C 14.484375 3.601562 15.199219 4.316406 15.199219 5.199219 L 15.199219 14.800781 C 15.199219 15.683594 14.484375 16.398438 13.601562 16.398438 C 12.714844 16.398438 12 15.683594 12 14.800781 L 12 5.199219 C 12 4.316406 12.714844 3.601562 13.601562 3.601562 Z M 13.601562 3.601562 "/>
</g>
</svg>
