<?xml version="1.0" encoding="UTF-8"?>
<svg xmlns="http://www.w3.org/2000/svg" xmlns:xlink="http://www.w3.org/1999/xlink" width="20px" height="20px" viewBox="0 0 20 20" version="1.1">
<g id="surface1">
<path style=" stroke:none;fill-rule:nonzero;fill:rgb(100%,100%,100%);fill-opacity:1;" d="M 14.375 6.875 C 14.667969 6.875 14.921875 7.078125 14.984375 7.363281 C 15.070312 7.734375 15.175781 7.996094 15.28125 8.140625 L 15.328125 8.199219 C 15.34375 8.21875 15.351562 8.21875 15.355469 8.21875 C 16.265625 8.21875 16.636719 8.996094 16.625 10.191406 C 16.621094 10.539062 16.339844 10.8125 15.992188 10.8125 C 15.648438 10.808594 15.371094 10.523438 15.375 10.179688 C 15.378906 9.859375 15.347656 9.628906 15.300781 9.496094 L 15.289062 9.46875 L 15.25 9.464844 C 15.167969 9.460938 15.082031 9.445312 15 9.421875 L 15 14.375 C 15 15.503906 13.695312 16.25 12.1875 16.25 C 10.679688 16.25 9.375 15.503906 9.375 14.375 C 9.375 13.246094 10.679688 12.5 12.1875 12.5 C 12.757812 12.5 13.296875 12.605469 13.75 12.800781 L 13.75 7.515625 C 13.75 7.484375 13.75 7.457031 13.753906 7.429688 L 13.75 7.5 C 13.75 7.15625 14.03125 6.875 14.375 6.875 Z M 8.125 13.75 C 8.46875 13.75 8.75 14.03125 8.75 14.375 C 8.75 14.71875 8.46875 15 8.125 15 L 4.375 15 C 4.03125 15 3.75 14.71875 3.75 14.375 C 3.75 14.03125 4.03125 13.75 4.375 13.75 Z M 12.1875 13.75 C 11.277344 13.75 10.625 14.125 10.625 14.375 C 10.625 14.625 11.277344 15 12.1875 15 C 13.097656 15 13.75 14.625 13.75 14.375 C 13.75 14.125 13.097656 13.75 12.1875 13.75 Z M 10.625 8.75 C 10.96875 8.75 11.25 9.03125 11.25 9.375 C 11.25 9.71875 10.96875 10 10.625 10 L 4.375 10 C 4.03125 10 3.75 9.71875 3.75 9.375 C 3.75 9.03125 4.03125 8.75 4.375 8.75 Z M 15.625 3.75 C 15.96875 3.75 16.25 4.03125 16.25 4.375 C 16.25 4.71875 15.96875 5 15.625 5 L 4.375 5 C 4.03125 5 3.75 4.71875 3.75 4.375 C 3.75 4.03125 4.03125 3.75 4.375 3.75 Z M 15.625 3.75 "/>
</g>
</svg>
