<?xml version="1.0" encoding="UTF-8"?>
<svg xmlns="http://www.w3.org/2000/svg" xmlns:xlink="http://www.w3.org/1999/xlink" width="20px" height="20px" viewBox="0 0 20 20" version="1.1">
<g id="surface1">
<path style=" stroke:none;fill-rule:nonzero;fill:rgb(100%,100%,100%);fill-opacity:1;" d="M 14 13.601562 L 14 6.65625 C 14 6.273438 13.730469 5.945312 13.355469 5.871094 L 10.785156 5.355469 C 10.328125 5.265625 10 4.863281 10 4.398438 C 10 3.957031 10.359375 3.601562 10.800781 3.601562 L 14 3.601562 C 15.324219 3.601562 16.398438 4.675781 16.398438 6 L 16.398438 13.601562 L 18.386719 13.601562 C 18.613281 13.601562 18.800781 13.78125 18.800781 14.007812 C 18.800781 14.113281 18.757812 14.210938 18.6875 14.289062 L 15.652344 17.410156 C 15.53125 17.53125 15.371094 17.601562 15.199219 17.601562 C 15.03125 17.601562 14.867188 17.53125 14.75 17.410156 L 11.714844 14.289062 C 11.636719 14.210938 11.597656 14.105469 11.601562 13.996094 C 11.601562 13.886719 11.648438 13.785156 11.730469 13.710938 C 11.804688 13.640625 11.910156 13.601562 12.015625 13.601562 Z M 6 6.398438 L 6 13.34375 C 6 13.726562 6.269531 14.054688 6.644531 14.128906 L 9.214844 14.644531 C 9.671875 14.734375 10 15.136719 10 15.601562 C 10 16.042969 9.640625 16.398438 9.199219 16.398438 L 6 16.398438 C 4.675781 16.398438 3.601562 15.324219 3.601562 14 L 3.601562 6.398438 L 1.613281 6.398438 C 1.386719 6.402344 1.203125 6.21875 1.199219 5.992188 C 1.199219 5.886719 1.242188 5.789062 1.3125 5.710938 L 4.347656 2.589844 C 4.46875 2.46875 4.628906 2.398438 4.800781 2.398438 C 4.96875 2.398438 5.132812 2.46875 5.25 2.589844 L 8.285156 5.710938 C 8.363281 5.789062 8.402344 5.894531 8.398438 6.003906 C 8.398438 6.113281 8.351562 6.214844 8.269531 6.289062 C 8.195312 6.359375 8.089844 6.398438 7.984375 6.398438 Z M 6 6.398438 "/>
</g>
</svg>
