<?xml version="1.0" encoding="UTF-8"?>
<svg xmlns="http://www.w3.org/2000/svg" xmlns:xlink="http://www.w3.org/1999/xlink" width="20px" height="20px" viewBox="0 0 20 20" version="1.1">
<g id="surface1">
<path style=" stroke:none;fill-rule:nonzero;fill:rgb(100%,100%,100%);fill-opacity:1;" d="M 10.800781 2.96875 L 10.800781 17.03125 C 10.800781 17.34375 10.550781 17.601562 10.246094 17.601562 C 9.890625 17.597656 9.546875 17.453125 9.300781 17.195312 L 6.433594 14.246094 C 6.160156 13.960938 5.78125 13.800781 5.386719 13.800781 L 4.890625 13.800781 C 2.851562 13.800781 1.199219 12.097656 1.199219 10 C 1.199219 7.902344 2.851562 6.199219 4.890625 6.199219 L 5.386719 6.199219 C 5.78125 6.199219 6.15625 6.039062 6.433594 5.753906 L 9.300781 2.804688 C 9.546875 2.546875 9.890625 2.402344 10.246094 2.398438 C 10.550781 2.398438 10.800781 2.65625 10.800781 2.96875 Z M 15.039062 4.953125 C 14.886719 4.808594 14.800781 4.605469 14.800781 4.394531 C 14.800781 4.183594 14.886719 3.980469 15.039062 3.832031 C 15.359375 3.523438 15.867188 3.523438 16.1875 3.832031 C 19.671875 7.238281 19.671875 12.761719 16.1875 16.167969 C 15.867188 16.476562 15.359375 16.476562 15.039062 16.167969 C 14.886719 16.019531 14.800781 15.816406 14.800781 15.605469 C 14.800781 15.394531 14.886719 15.191406 15.039062 15.046875 C 16.40625 13.722656 17.175781 11.902344 17.175781 10 C 17.175781 8.097656 16.40625 6.277344 15.039062 4.953125 Z M 13.019531 7.300781 C 12.726562 7 12.726562 6.523438 13.019531 6.222656 C 13.15625 6.082031 13.347656 6 13.546875 6 C 13.742188 6 13.933594 6.082031 14.070312 6.222656 C 16.109375 8.308594 16.109375 11.691406 14.070312 13.777344 C 13.933594 13.917969 13.742188 14 13.546875 14 C 13.347656 14 13.15625 13.917969 13.019531 13.777344 C 12.726562 13.476562 12.726562 13 13.019531 12.699219 C 14.472656 11.207031 14.472656 8.792969 13.019531 7.300781 Z M 13.019531 7.300781 "/>
</g>
</svg>
